<svg width="128" height="116" viewBox="0 0 128 116" fill="none" xmlns="http://www.w3.org/2000/svg">
<path d="M63.9456 41.404C68.6515 41.404 73.1647 43.2735 76.4923 46.6011C79.8199 49.9287 81.6893 54.4419 81.6893 59.1478V101.661H46.2018V59.1478C46.2018 54.4419 48.0712 49.9287 51.3988 46.6011C54.7264 43.2735 59.2396 41.404 63.9456 41.404Z" fill="#E6E6E6"/>
<path d="M57.7882 62.7366H54.602V73.3106H57.7882V62.7366Z" fill="white"/>
<path d="M69.2318 74.1802H58.6579V83.7399H69.2318V74.1802Z" fill="white"/>
<path d="M69.2318 62.7366H58.6579V73.3106H69.2318V62.7366Z" fill="white"/>
<path d="M70.1019 61.868H73.2882V61.6461C73.29 60.3149 73.0066 58.9986 72.457 57.7861C71.9074 56.5736 71.1044 55.493 70.1019 54.6169V61.868Z" fill="white"/>
<path d="M58.6579 61.868H69.2319V53.9491C67.677 52.878 65.8329 52.3057 63.9449 52.3083C62.0568 52.3057 60.2127 52.878 58.6579 53.9491V61.868Z" fill="white"/>
<path d="M57.7882 74.1802H54.602V81.4223C54.602 82.037 54.8462 82.6264 55.2808 83.0611C55.7155 83.4957 56.3049 83.7399 56.9196 83.7399H57.7882V74.1802Z" fill="white"/>
<path d="M70.1019 74.1802V83.7399H70.9705C71.5852 83.7399 72.1747 83.4957 72.6094 83.0611C73.044 82.6264 73.2882 82.037 73.2882 81.4223V74.1802H70.1019Z" fill="white"/>
<path d="M57.7882 61.8681V54.626C56.7858 55.502 55.9827 56.5827 55.4331 57.7952C54.8835 59.0077 54.6001 60.3239 54.602 61.6552V61.8721L57.7882 61.8681Z" fill="white"/>
<path d="M73.2872 62.7366H70.101V73.3106H73.2872V62.7366Z" fill="white"/>
<path d="M79.1542 76.787C80.1941 76.787 81.037 75.944 81.037 74.9041C81.037 73.8643 80.1941 73.0213 79.1542 73.0213C78.1144 73.0213 77.2714 73.8643 77.2714 74.9041C77.2714 75.944 78.1144 76.787 79.1542 76.787Z" fill="#3F3D56"/>
<path d="M19.7891 56.8322H17.2877V65.1317H19.7891V56.8322Z" fill="#F2F2F2"/>
<path d="M28.7713 56.8322H20.4718V65.1317H28.7713V56.8322Z" fill="#F2F2F2"/>
<path d="M31.9539 56.8322H29.4525V65.1317H31.9539V56.8322Z" fill="#F2F2F2"/>
<path d="M29.4525 56.1492H31.9539V55.9785C31.9547 54.9343 31.7319 53.902 31.3004 52.9511C30.8689 52.0002 30.2389 51.1527 29.4525 50.4656V56.1492Z" fill="#F2F2F2"/>
<path d="M28.7713 65.8134H20.4718V73.3166H28.7713V65.8134Z" fill="#F2F2F2"/>
<path d="M19.7891 65.8134H17.2877V71.498C17.2877 71.9803 17.4793 72.4428 17.8203 72.7839C18.1614 73.1249 18.6239 73.3165 19.1062 73.3165H19.7881L19.7891 65.8134Z" fill="#F2F2F2"/>
<path d="M29.4525 65.8134V73.3165H30.1343C30.6166 73.3165 31.0792 73.1249 31.4202 72.7839C31.7613 72.4428 31.9529 71.9803 31.9529 71.498V65.8134H29.4525Z" fill="#F2F2F2"/>
<path d="M19.7891 56.1492V50.4656C19.0027 51.1527 18.3726 52.0002 17.9412 52.9511C17.5097 53.902 17.2869 54.9343 17.2877 55.9785V56.1492H19.7891Z" fill="#F2F2F2"/>
<path d="M20.4718 56.1502H28.7713V49.9344C27.5513 49.0942 26.1044 48.6452 24.6231 48.647C23.1414 48.645 21.6941 49.094 20.4738 49.9344L20.4718 56.1502Z" fill="#F2F2F2"/>
<path d="M35.2192 74.2214H14.0743C13.9389 74.2212 13.809 74.1672 13.7132 74.0714C13.6174 73.9756 13.5635 73.8457 13.5632 73.7103V72.3456C13.5635 72.2101 13.6174 72.0803 13.7132 71.9845C13.809 71.8887 13.9389 71.8347 14.0743 71.8345H35.2203C35.3557 71.8347 35.4856 71.8887 35.5814 71.9845C35.6772 72.0803 35.7311 72.2101 35.7313 72.3456V73.7103C35.7311 73.8459 35.677 73.9759 35.581 74.0717C35.485 74.1676 35.3549 74.2214 35.2192 74.2214Z" fill="#E6E6E6"/>
<path d="M98.4412 56.8322H95.9398V65.1317H98.4412V56.8322Z" fill="#F2F2F2"/>
<path d="M107.422 56.8322H99.123V65.1317H107.422V56.8322Z" fill="#F2F2F2"/>
<path d="M110.606 56.8322H108.105V65.1317H110.606V56.8322Z" fill="#F2F2F2"/>
<path d="M108.105 56.1492H110.606V55.9785C110.607 54.9343 110.384 53.902 109.953 52.9511C109.521 52.0002 108.891 51.1527 108.105 50.4656V56.1492Z" fill="#F2F2F2"/>
<path d="M107.422 65.8134H99.123V73.3166H107.422V65.8134Z" fill="#F2F2F2"/>
<path d="M98.4412 65.8134H95.9398V71.498C95.9398 71.9803 96.1314 72.4428 96.4724 72.7839C96.8135 73.1249 97.276 73.3165 97.7583 73.3165H98.4402L98.4412 65.8134Z" fill="#F2F2F2"/>
<path d="M108.105 65.8134V73.3165H108.786C109.269 73.3165 109.731 73.1249 110.072 72.7839C110.413 72.4428 110.605 71.9803 110.605 71.498V65.8134H108.105Z" fill="#F2F2F2"/>
<path d="M98.4412 56.1492V50.4656C97.6549 51.1527 97.0248 52.0002 96.5933 52.9511C96.1619 53.902 95.939 54.9343 95.9398 55.9785V56.1492H98.4412Z" fill="#F2F2F2"/>
<path d="M99.123 56.1502H107.422V49.9344C106.202 49.0942 104.756 48.6452 103.274 48.647C101.792 48.645 100.345 49.094 99.1249 49.9344L99.123 56.1502Z" fill="#F2F2F2"/>
<path d="M113.872 74.2215H92.7264C92.5908 74.2212 92.4608 74.1671 92.365 74.0711C92.2691 73.9751 92.2153 73.845 92.2153 73.7093V72.3447C92.2156 72.2092 92.2695 72.0793 92.3653 71.9835C92.4611 71.8877 92.591 71.8338 92.7264 71.8335H113.872C114.008 71.8338 114.138 71.8877 114.233 71.9835C114.329 72.0793 114.383 72.2092 114.383 72.3447V73.7093C114.383 73.845 114.33 73.9751 114.234 74.0711C114.138 74.1671 114.008 74.2212 113.872 74.2215Z" fill="#E6E6E6"/>
<path d="M120.146 101.802H7.74433C6.47704 101.801 5.26204 101.297 4.36593 100.401C3.46981 99.5045 2.9658 98.2895 2.96447 97.0222V24.1674C2.9658 22.9001 3.46981 21.6851 4.36593 20.7889C5.26204 19.8928 6.47704 19.3888 7.74433 19.3875H120.146C121.413 19.3888 122.628 19.8928 123.524 20.7889C124.42 21.6851 124.924 22.9001 124.925 24.1674V97.0252C124.923 98.292 124.419 99.5062 123.523 100.402C122.627 101.297 121.412 101.801 120.146 101.802ZM7.74433 19.6767C6.55374 19.678 5.4123 20.1516 4.57042 20.9934C3.72854 21.8353 3.255 22.9768 3.25367 24.1674V97.0252C3.255 98.2158 3.72854 99.3572 4.57042 100.199C5.4123 101.041 6.55374 101.515 7.74433 101.516H120.146C121.336 101.515 122.478 101.041 123.319 100.199C124.161 99.3572 124.635 98.2158 124.636 97.0252V24.1674C124.635 22.9768 124.161 21.8353 123.319 20.9934C122.478 20.1516 121.336 19.678 120.146 19.6767H7.74433Z" fill="#CCCCCC"/>
<path d="M4.78217 28.914C3.57968 28.9118 2.42199 28.4575 1.53895 27.6413C0.65591 26.8251 0.112101 25.7066 0.015495 24.508C-0.0811114 23.3094 0.276548 22.1183 1.01746 21.1712C1.75838 20.2241 2.82836 19.5902 4.01497 19.3955L62.7571 0.0942517C63.5219 -0.0314172 64.302 -0.0314172 65.0668 0.0942517L123.888 19.4015C124.512 19.4995 125.111 19.72 125.65 20.0503C126.188 20.3806 126.656 20.8141 127.026 21.326C127.397 21.8379 127.662 22.418 127.807 23.0329C127.952 23.6477 127.974 24.2853 127.872 24.9087C127.77 25.5322 127.545 26.1292 127.211 26.6655C126.877 27.2018 126.441 27.6667 125.926 28.0335C125.412 28.4003 124.83 28.6617 124.214 28.8026C123.598 28.9436 122.961 28.9613 122.338 28.8548C121.704 28.7644 64.4683 20.5915 63.9461 20.5704C63.4259 20.5915 6.13478 28.7725 5.55537 28.8548C5.29965 28.8954 5.04108 28.9152 4.78217 28.914Z" fill="#A7D325"/>
<path d="M89.1386 90.2972C89.2593 90.1402 89.3442 89.9588 89.3874 89.7655C89.4305 89.5723 89.431 89.372 89.3886 89.1786C89.3462 88.9851 89.2621 88.8033 89.1421 88.6458C89.0221 88.4883 88.869 88.359 88.6938 88.2668L88.9619 85.175L87.1223 84.5534L86.805 88.9255C86.6703 89.2317 86.6527 89.5766 86.7555 89.8948C86.8583 90.2131 87.0742 90.4826 87.3625 90.6523C87.6507 90.8219 87.9911 90.8798 88.3193 90.8151C88.6474 90.7504 88.9404 90.5676 89.1427 90.3013L89.1386 90.2972Z" fill="#FFB8B8"/>
<path d="M98.3182 114.338H96.6624L95.8751 107.951H98.3193L98.3182 114.338Z" fill="#FFB8B8"/>
<path d="M95.479 113.865H98.6722V115.873H93.4676C93.4676 115.61 93.5197 115.348 93.6208 115.104C93.7219 114.86 93.8701 114.639 94.0569 114.452C94.2437 114.266 94.4655 114.118 94.7095 114.017C94.9535 113.916 95.215 113.865 95.479 113.865Z" fill="#2F2E41"/>
<path d="M94.5582 110.1L92.9516 110.496L90.662 104.481L93.0359 103.898L94.5582 110.1Z" fill="#FFB8B8"/>
<path d="M91.6864 110.318L94.7871 109.555L95.2671 111.505L90.2163 112.749C90.089 112.231 90.1723 111.685 90.448 111.229C90.7237 110.773 91.1692 110.446 91.6864 110.318Z" fill="#2F2E41"/>
<path d="M96.3799 112.302C96.2289 112.302 96.083 112.246 95.9708 112.145C95.8585 112.044 95.7878 111.905 95.7724 111.754L93.8645 94.0026L92.2066 99.4312L94.5553 107.909C94.5956 108.055 94.5808 108.21 94.5139 108.345C94.447 108.48 94.3327 108.585 94.1928 108.641L92.3261 109.389C92.2494 109.419 92.1673 109.433 92.0848 109.431C92.0023 109.429 91.9212 109.41 91.8461 109.376C91.7711 109.342 91.7038 109.292 91.6482 109.232C91.5927 109.171 91.5499 109.099 91.5227 109.021L88.6448 100.764C88.3293 99.8614 88.1899 98.9069 88.2341 97.952L88.6357 89.041L99.2157 89.4889L99.051 111.537C99.048 111.689 98.9885 111.835 98.8838 111.947C98.7792 112.058 98.637 112.127 98.4847 112.139L96.4301 112.294L96.3799 112.302Z" fill="#2F2E41"/>
<path d="M94.6277 69.3219C96.5927 69.3219 98.1855 67.729 98.1855 65.7641C98.1855 63.7992 96.5927 62.2063 94.6277 62.2063C92.6628 62.2063 91.07 63.7992 91.07 65.7641C91.07 67.729 92.6628 69.3219 94.6277 69.3219Z" fill="#FFB8B8"/>
<path d="M97.2434 90.0702C96.3065 90.0702 95.1427 89.9939 93.9387 89.9146C92.4028 89.7805 90.8608 89.7316 89.3195 89.768C89.1478 89.7857 88.9744 89.7589 88.8161 89.6901C88.6578 89.6214 88.5199 89.5129 88.4157 89.3753C87.1103 87.6994 89.1257 81.1612 89.2121 80.8841L90.8559 73.5736C91.0006 72.8198 91.3631 72.1249 91.8985 71.5749C92.4339 71.0249 93.1188 70.6438 93.8684 70.4788C94.5543 70.3413 95.2657 70.4112 95.9119 70.6794C96.558 70.9476 97.1096 71.4022 97.4965 71.9851C97.5427 72.052 97.5889 72.119 97.6351 72.1859C100.467 76.3803 98.8652 86.8007 98.7577 87.4735C98.9074 87.6522 99.7168 88.6654 99.4938 89.3693C99.435 89.5224 99.3363 89.657 99.2079 89.759C99.0795 89.8611 98.9262 89.9269 98.7637 89.9497C98.2631 90.0467 97.7531 90.0871 97.2434 90.0702Z" fill="#CCCCCC"/>
<path d="M89.3784 90.0752C88.9123 90.0382 88.4571 89.9154 88.0358 89.7127C87.7837 89.6123 87.0176 89.289 87.9474 81.1562C88.4043 77.1616 89.059 73.1941 89.066 73.1549L89.0721 73.1167L89.1072 73.1007C89.1243 73.0926 90.7962 72.3265 91.0874 71.3414C91.0975 71.3072 91.1089 71.2737 91.1216 71.2409C91.2015 71.022 91.363 70.8424 91.5722 70.7397C91.7814 70.637 92.0222 70.619 92.2443 70.6896C92.4791 70.7456 92.6838 70.8889 92.8167 71.0903C92.9497 71.2918 93.001 71.5363 92.9603 71.7742C92.8589 72.4166 92.6639 73.0408 92.3818 73.6269C91.7265 75.564 91.2821 77.5662 91.0563 79.5987C91.0262 79.9662 90.3122 88.6764 90.1746 89.3392C90.1612 89.4702 90.1188 89.5967 90.0504 89.7092C89.9819 89.8218 89.8892 89.9177 89.779 89.9899C89.6545 90.0507 89.5169 90.08 89.3784 90.0752Z" fill="#2F2E41"/>
<path d="M93.2658 89.7408C93.2007 89.7409 93.1374 89.7194 93.086 89.6795C92.0397 88.8842 93.7327 79.2432 94.7378 75.9163C94.9387 75.2506 95.1184 74.6801 95.2701 74.2212C95.5472 73.3976 95.7407 72.5482 95.8475 71.6857C95.9027 71.2188 96.0232 70.9517 96.215 70.8703C96.2957 70.8455 96.3818 70.843 96.4638 70.8632C96.5459 70.8833 96.6209 70.9254 96.6809 70.9848C97.6185 71.0045 98.5358 71.2627 99.346 71.735L100.098 72.1105L100.942 87.0516C100.918 88.0056 99.0337 88.6783 98.2183 88.7215C96.9018 88.7908 94.5381 89.0047 93.4987 89.6645C93.4304 89.7119 93.3499 89.7388 93.2667 89.7418L93.2658 89.7408Z" fill="#2F2E41"/>
<path d="M88.5647 86.9371H88.5276L86.8205 86.8367C86.7356 86.8315 86.6527 86.8088 86.5772 86.7698C86.5016 86.7308 86.4349 86.6766 86.3815 86.6104C86.328 86.5443 86.2889 86.4678 86.2666 86.3857C86.2443 86.3036 86.2394 86.2179 86.2521 86.1338L87.0233 81.0236L88.4754 73.8537C88.5111 73.6771 88.5836 73.5099 88.6881 73.3631C88.7926 73.2163 88.9268 73.0931 89.082 73.0014C89.2371 72.9098 89.4098 72.8518 89.5888 72.8312C89.7679 72.8106 89.9492 72.8277 90.1212 72.8817C90.4151 72.9755 90.6658 73.1713 90.828 73.4337C90.9902 73.6961 91.0533 74.0078 91.0059 74.3126L89.8521 81.4965L89.1692 86.417C89.1466 86.5613 89.0734 86.6929 88.9626 86.7882C88.8519 86.8835 88.7108 86.9363 88.5647 86.9371Z" fill="#2F2E41"/>
<path d="M95.2772 69.2335C95.8125 69.2449 96.3442 69.1429 96.8373 68.9342C97.3304 68.7256 97.7738 68.4149 98.1384 68.0227C98.5029 67.6305 98.7803 67.1656 98.9523 66.6586C99.1244 66.1515 99.1873 65.6138 99.1368 65.0807C99.0863 64.5477 98.9237 64.0313 98.6594 63.5656C98.3952 63.0999 98.0355 62.6953 97.6038 62.3785C97.1721 62.0617 96.6783 61.8398 96.1548 61.7274C95.6313 61.615 95.0899 61.6147 94.5663 61.7263C93.7955 61.2194 92.8839 60.9698 91.9624 61.0134C91.5041 61.0422 91.0621 61.1942 90.683 61.4533C90.304 61.7124 90.0018 62.069 89.8084 62.4855C89.6376 62.9097 89.6324 63.3827 89.7941 63.8106C89.9557 64.2384 90.2724 64.5898 90.6811 64.7951C91.2475 64.9589 91.8474 64.9676 92.4183 64.8202C92.9912 64.6732 93.5972 64.7268 94.1354 64.9718C94.6375 65.2731 94.8675 66.0764 94.4146 66.448C94.175 66.6541 94.0038 66.9284 93.924 67.2343C93.8442 67.5402 93.8594 67.8631 93.9678 68.1601C94.0733 68.4377 94.2497 68.683 94.4794 68.8713C94.7091 69.0596 94.9842 69.1845 95.2772 69.2335Z" fill="#2F2E41"/>
<path d="M87.3912 69.552C86.4635 69.552 85.574 69.9205 84.918 70.5764C84.2621 71.2324 83.8936 72.122 83.8936 73.0496C83.8936 73.9772 84.2621 74.8668 84.918 75.5227C85.574 76.1786 86.4635 76.5471 87.3912 76.5471C88.3188 76.5471 89.2084 76.1786 89.8643 75.5227C90.5202 74.8668 90.8887 73.9772 90.8887 73.0496C90.8887 72.122 90.5202 71.2324 89.8643 70.5764C89.2084 69.9205 88.3188 69.552 87.3912 69.552Z" fill="#A7D325"/>
<path d="M87.0592 74.5006C86.9673 74.5008 86.8778 74.4712 86.8041 74.4162L85.8421 73.6802C85.7957 73.6467 85.7566 73.6043 85.7268 73.5554C85.6971 73.5065 85.6776 73.4521 85.6692 73.3955C85.6609 73.3389 85.664 73.2812 85.6784 73.2258C85.6927 73.1704 85.7181 73.1185 85.7529 73.0731C85.7877 73.0276 85.8313 72.9897 85.881 72.9614C85.9307 72.9331 85.9856 72.9151 86.0424 72.9084C86.0993 72.9018 86.1569 72.9065 86.2118 72.9225C86.2668 72.9384 86.3179 72.9653 86.3623 73.0014L86.9849 73.4794L88.457 71.5583C88.4911 71.5133 88.5338 71.4754 88.5827 71.447C88.6316 71.4185 88.6856 71.4001 88.7417 71.3927C88.7978 71.3853 88.8547 71.3891 88.9093 71.404C88.9638 71.4188 89.0149 71.4443 89.0596 71.479C89.1045 71.5132 89.1423 71.556 89.1707 71.6049C89.199 71.6537 89.2174 71.7077 89.2248 71.7637C89.2322 71.8197 89.2284 71.8767 89.2136 71.9312C89.1989 71.9858 89.1735 72.0368 89.1389 72.0815L87.4077 74.3399C87.3675 74.392 87.316 74.4341 87.257 74.4631C87.1979 74.492 87.133 74.5069 87.0673 74.5066L87.0592 74.5006Z" fill="white"/>
<path d="M94.7592 79.2493H82.4842C82.3209 79.2492 82.1592 79.2813 82.0083 79.3437C81.8574 79.4062 81.7203 79.4977 81.6048 79.6132C81.4894 79.7286 81.3978 79.8657 81.3354 80.0166C81.273 80.1675 81.2409 80.3292 81.241 80.4925V92.7676C81.2409 92.9309 81.273 93.0925 81.3354 93.2434C81.3978 93.3943 81.4894 93.5314 81.6048 93.6469C81.7203 93.7624 81.8574 93.8539 82.0083 93.9163C82.1592 93.9788 82.3209 94.0108 82.4842 94.0107H94.7592C94.9225 94.0107 95.0841 93.9786 95.235 93.9161C95.3858 93.8536 95.5228 93.762 95.6383 93.6466C95.7537 93.5311 95.8453 93.3941 95.9078 93.2433C95.9702 93.0925 96.0024 92.9308 96.0024 92.7676V80.4925C96.0024 80.3292 95.9702 80.1676 95.9078 80.0167C95.8453 79.8659 95.7537 79.7289 95.6383 79.6135C95.5228 79.498 95.3858 79.4064 95.235 79.344C95.0841 79.2815 94.9225 79.2493 94.7592 79.2493Z" fill="#A7D325"/>
<path d="M91.9943 88.4314L86.1992 89.5601C85.8555 89.6264 85.4994 89.5537 85.2092 89.3579C84.9189 89.1622 84.7181 88.8593 84.6508 88.5158L84.2049 86.2282C84.1386 85.8845 84.2113 85.5284 84.4071 85.2382C84.6028 84.9479 84.9057 84.7471 85.2493 84.6798L91.0444 83.5511C91.3882 83.4847 91.7442 83.5575 92.0345 83.7532C92.3247 83.949 92.5255 84.2519 92.5928 84.5955L93.0386 86.8829C93.105 87.2267 93.0323 87.5827 92.8366 87.873C92.6408 88.1633 92.3379 88.3641 91.9943 88.4314Z" fill="white"/>
<path d="M90.8352 85.7251L86.4168 86.5867C86.336 86.6024 86.2523 86.5854 86.184 86.5394C86.1157 86.4933 86.0685 86.422 86.0528 86.3412C86.0371 86.2604 86.0542 86.1766 86.1002 86.1083C86.1463 86.04 86.2175 85.9929 86.2984 85.9771L90.7167 85.1156C90.7975 85.0999 90.8813 85.1169 90.9496 85.163C91.0179 85.209 91.065 85.2803 91.0807 85.3611C91.0965 85.4419 91.0794 85.5257 91.0334 85.594C90.9873 85.6622 90.9161 85.7094 90.8352 85.7251Z" fill="#6C63FF"/>
<path d="M89.9699 87.0015L87.6823 87.4473C87.6014 87.463 87.5175 87.4459 87.4491 87.3998C87.3808 87.3536 87.3336 87.2822 87.3178 87.2013C87.3021 87.1203 87.3192 87.0364 87.3653 86.9681C87.4115 86.8997 87.4829 86.8525 87.5639 86.8368L89.8514 86.3909C89.9324 86.3752 90.0162 86.3923 90.0846 86.4385C90.153 86.4846 90.2002 86.5559 90.2159 86.6369C90.2316 86.7179 90.2145 86.8018 90.1684 86.8702C90.1222 86.9385 90.0508 86.9857 89.9699 87.0015Z" fill="#6C63FF"/>
<path d="M96.0024 80.4925V82.1243H81.241V80.4925C81.241 80.1628 81.372 79.8466 81.6051 79.6135C81.8383 79.3803 82.1545 79.2493 82.4842 79.2493H94.7592C95.089 79.2493 95.4051 79.3803 95.6383 79.6135C95.8714 79.8466 96.0024 80.1628 96.0024 80.4925Z" fill="#3F3D56"/>
<path d="M94.3876 81.3469C94.4918 81.1779 94.6317 81.0338 94.7976 80.9248C94.9634 80.8157 95.1512 80.7442 95.3476 80.7155C95.544 80.6868 95.7444 80.7015 95.9345 80.7585C96.1247 80.8156 96.3 80.9135 96.4482 81.0456L99.2428 79.696L100.477 81.1943L96.5034 83.045C96.2651 83.2796 95.9489 83.4186 95.6149 83.4357C95.281 83.4528 94.9523 83.3467 94.6913 83.1376C94.4303 82.9285 94.2551 82.6308 94.199 82.3011C94.1428 81.9715 94.2096 81.6326 94.3866 81.3489L94.3876 81.3469Z" fill="#FFB8B8"/>
<path d="M98.2712 82.7931C98.1338 82.7929 98.0004 82.7466 97.8924 82.6616C97.7844 82.5766 97.7081 82.4577 97.6757 82.3242L97.274 80.6361C97.2432 80.5092 97.2539 80.3758 97.3046 80.2555C97.3552 80.1351 97.443 80.0342 97.5552 79.9674L100.003 78.5023L98.7522 73.9202C98.6641 73.5945 98.6835 73.249 98.8074 72.9352C98.9254 72.6375 99.1323 72.3833 99.3999 72.2074C99.6675 72.0315 99.9828 71.9424 100.303 71.9521C100.623 71.9619 100.932 72.0701 101.189 72.262C101.445 72.4539 101.636 72.7202 101.736 73.0245L103.117 77.242C103.287 77.7562 103.288 78.3112 103.121 78.8262C102.954 79.3413 102.627 79.7896 102.187 80.106L98.6357 82.6756C98.5299 82.7528 98.4022 82.794 98.2712 82.7931Z" fill="#2F2E41"/>
<path d="M102.315 116H87.5411C87.5027 116 87.466 115.985 87.4388 115.958C87.4117 115.93 87.3965 115.894 87.3965 115.855C87.3965 115.817 87.4117 115.78 87.4388 115.753C87.466 115.726 87.5027 115.711 87.5411 115.711H102.315C102.354 115.711 102.391 115.726 102.418 115.753C102.445 115.78 102.46 115.817 102.46 115.855C102.46 115.894 102.445 115.93 102.418 115.958C102.391 115.985 102.354 116 102.315 116Z" fill="#CCCCCC"/>
</svg>
