<svg width="41" height="41" viewBox="0 0 41 41" fill="none" xmlns="http://www.w3.org/2000/svg">
<path d="M20.5 41C31.8218 41 41 31.8218 41 20.5C41 9.17816 31.8218 0 20.5 0C9.17816 0 0 9.17816 0 20.5C0 31.8218 9.17816 41 20.5 41Z" fill="#003D7A"/>
<path d="M27.9999 24.9969C27.0849 24.2107 26.0775 23.5391 24.9999 22.9969C24.7093 22.7855 24.3592 22.6716 23.9999 22.6716C23.6406 22.6716 23.2905 22.7855 22.9999 22.9969C22.4889 23.3659 22.5879 24.1259 21.9999 23.9969C21.4119 23.8679 20.1249 22.1179 18.9999 20.9969C17.8749 19.8759 17.1249 19.5849 16.9999 18.9969C16.8749 18.4089 16.6349 17.5079 16.9999 16.9969C17.4419 16.3829 18.4209 15.8649 17.9999 14.9969C17.4603 13.9178 16.7884 12.91 15.9999 11.9969C15.3689 11.3659 14.3479 11.8719 13.9999 11.9969C13.7161 12.3763 13.3793 12.713 12.9999 12.9969C12.3689 13.4179 12.2489 13.4689 11.9999 13.9969C11.7509 14.5249 11.5569 15.4279 12.9999 17.9969C14.0698 19.8582 15.4188 21.5445 16.9999 22.9969C18.4532 24.577 20.1393 25.9259 21.9999 26.9969C24.5689 28.4399 26.4719 28.2419 26.9999 27.9969C27.5279 27.7519 27.5789 27.6329 27.9999 26.9969C28.0961 26.8478 28.1473 26.6742 28.1473 26.4969C28.1473 26.3195 28.0961 26.1459 27.9999 25.9969C28.1249 25.6519 28.6359 25.6309 27.9999 24.9969Z" fill="white"/>
</svg>
