<svg width="162" height="116" viewBox="0 0 162 116" fill="none" xmlns="http://www.w3.org/2000/svg">
<path d="M134.051 73.3939C134.193 73.0997 134.268 72.7781 134.272 72.4516C134.276 72.1252 134.208 71.8019 134.073 71.5046C133.938 71.2072 133.74 70.943 133.492 70.7306C133.244 70.5182 132.952 70.3627 132.638 70.2752L132.144 62.3564L128.851 64.8341L129.825 71.9745C129.713 72.5124 129.803 73.0727 130.076 73.5492C130.35 74.0257 130.789 74.3854 131.309 74.56C131.83 74.7347 132.397 74.7123 132.903 74.497C133.408 74.2817 133.817 73.8886 134.052 73.392L134.051 73.3939Z" fill="#FFB8B8"/>
<path d="M148.409 104.523L151.026 105.273L155.165 95.5364L151.303 94.433L148.409 104.523Z" fill="#FFB8B8"/>
<path d="M155.379 109.15L147.157 106.789L148.07 103.608L153.111 105.055C153.955 105.298 154.668 105.865 155.093 106.633C155.518 107.401 155.621 108.307 155.379 109.15Z" fill="#2F2E41"/>
<path d="M144.219 113.471H141.496L140.201 102.971H144.219V113.471Z" fill="#FFB8B8"/>
<path d="M139.552 112.689H144.802V116H136.246C136.246 115.122 136.595 114.28 137.216 113.659C137.837 113.038 138.679 112.689 139.557 112.689H139.552Z" fill="#2F2E41"/>
<path d="M136.69 70.6586C136.69 70.6586 135.136 76.8781 137.8 89.5317L139.799 111.292L144.906 111.514L144.24 87.9768L146.016 78.2072L150.457 91.7497L148.901 101.3L152.676 103.076L156.895 89.9761C156.895 89.9761 156.451 71.769 154.674 69.5481L136.69 70.6586Z" fill="#2F2E41"/>
<path d="M143.139 35.2415C146.15 35.2415 148.592 32.8001 148.592 29.7884C148.592 26.7767 146.15 24.3353 143.139 24.3353C140.127 24.3353 137.686 26.7767 137.686 29.7884C137.686 32.8001 140.127 35.2415 143.139 35.2415Z" fill="#FFB8B8"/>
<path d="M140.243 38.0703C140.243 38.0703 139.91 38.8026 143.906 38.3502C147.903 37.8978 148.792 36.5736 148.792 36.5736L155.786 67.2548L155.341 69.9693L136.245 71.1009V67.2518L139.576 46.8879L140.243 38.0703Z" fill="#E6E6E6"/>
<path d="M141.878 70.3264L135.825 70.2121L135.806 70.1278C135.024 65.9207 135.1 61.5992 136.027 57.422C137.25 52.005 134.472 44.666 133.219 41.7609C133.071 41.4153 133.054 41.0282 133.17 40.6708C133.285 40.3133 133.526 40.0097 133.848 39.8158L138.132 37.2447C138.424 37.0697 138.752 36.9653 139.091 36.9398C139.43 36.9143 139.771 36.9684 140.085 37.0978C140.4 37.2272 140.68 37.4284 140.903 37.6852C141.125 37.942 141.285 38.2474 141.369 38.5769L142.119 41.5161C145.569 45.2278 145.329 52.8366 144.515 58.5696C143.936 62.5207 143.064 66.4233 141.907 70.2452L141.878 70.3264Z" fill="#2F2E41"/>
<path d="M135.024 39.239L134.501 39.5971C133.318 40.4012 132.43 41.569 131.971 42.9235C131.704 43.7135 131.5 44.5232 131.361 45.3451C130.916 48.0095 128.918 59.3339 128.918 59.3339L128.03 70.4358L132.916 69.3253L135.136 56.4469L137.352 48.4498L135.024 39.239Z" fill="#2F2E41"/>
<path d="M152.397 70.3787L152.351 70.2512C152.033 69.3715 144.626 48.6385 148.122 41.3286L147.779 37.8998C147.742 37.5325 147.797 37.1617 147.939 36.8209C148.081 36.48 148.305 36.1797 148.592 35.9471C148.879 35.7144 149.219 35.5566 149.582 35.4879C149.944 35.4192 150.318 35.4418 150.67 35.5535L156.025 37.2518C156.246 37.3208 156.439 37.4593 156.575 37.6468C156.71 37.8343 156.782 38.0606 156.779 38.2921C156.753 41.9891 156.532 45.6821 156.116 49.3558C155.46 54.3875 157.648 66.959 157.67 67.0853L157.683 67.1596L152.397 70.3787Z" fill="#2F2E41"/>
<path d="M150.037 64.8673C150.043 64.5409 150.121 64.2199 150.265 63.9269C150.409 63.6339 150.615 63.3759 150.869 63.1713C151.124 62.9666 151.42 62.8202 151.737 62.7423C152.054 62.6644 152.384 62.657 152.704 62.7206L156.717 55.8741L158.539 59.5727L154.452 65.5073C154.31 66.0393 153.978 66.5009 153.519 66.8042C153.059 67.1075 152.504 67.2314 151.96 67.1524C151.415 67.0734 150.918 66.797 150.564 66.3757C150.209 65.9544 150.021 65.4176 150.037 64.8673Z" fill="#FFB8B8"/>
<path d="M155.231 37.2408L155.518 37.307C155.873 37.3889 156.202 37.5578 156.475 37.7986C156.749 38.0394 156.958 38.3445 157.085 38.6863L162 52.006L156.227 64.6627L154.12 59.4464L156.785 53.6733L152.011 47.5671L155.231 37.2408Z" fill="#2F2E41"/>
<path d="M148.667 30.5428C148.981 29.7344 149.216 28.8976 149.369 28.0439C149.521 27.1853 149.42 26.3012 149.078 25.4989C148.712 24.7962 148.199 24.1805 147.574 23.6933C147.146 23.3295 146.697 22.9915 146.228 22.6811C144.909 21.8064 144.623 22.6019 143.039 22.4233C141.455 22.2447 139.683 21.7893 138.415 22.7333C137.595 23.3565 136.979 24.2103 136.646 25.1854C136.313 26.1606 136.279 27.2128 136.548 28.2074C136.902 29.4112 136.62 29.8125 137.712 30.4575C137.711 29.3747 138.123 28.3323 138.863 27.5424C139.62 26.7495 140.644 26.2652 141.736 26.1831C142.582 26.1634 143.427 26.2647 144.244 26.484C145.053 26.6069 145.833 26.879 146.542 27.2866C147.578 28.1473 148.318 29.3121 148.655 30.616" fill="#2F2E41"/>
<path d="M96.0802 16.8597H0V17.7575H96.0802V16.8597Z" fill="#E6E6E6"/>
<path d="M77.2692 0H76.8248V69.2772H77.2692V0Z" fill="#E6E6E6"/>
<path d="M57.9077 0H57.4633V69.2772H57.9077V0Z" fill="#E6E6E6"/>
<path d="M38.5453 0H38.1009V69.2772H38.5453V0Z" fill="#E6E6E6"/>
<path d="M19.1828 0H18.7384V69.2772H19.1828V0Z" fill="#E6E6E6"/>
<path d="M57.469 17.7576H18.857V34.819H57.469V17.7576Z" fill="#A7D325"/>
<path d="M18.9167 33.3063V51.9578L39.1221 33.9724L18.9167 33.3063Z" fill="#A7D325"/>
<path d="M57.7733 33.9724V34.6385L57.5205 34.8632L57.0099 35.3166C47.0788 35.6176 39.0536 42.7308 38.6935 51.5525L38.238 51.9538V33.3073L57.7733 33.9724Z" fill="#A7D325"/>
<path d="M57.6629 34.8612C57.6158 34.8612 57.5626 34.8612 57.5205 34.8612C46.9564 34.9274 38.3694 42.5483 38.238 51.9538C38.238 52.029 38.238 52.1023 38.238 52.1785C38.238 61.7285 46.9534 69.4978 57.6669 69.4978C68.3805 69.4978 77.0958 61.7285 77.0958 52.1785C77.0958 42.6286 68.3765 34.8612 57.6629 34.8612ZM57.6629 69.0554C47.1961 69.0554 38.6784 61.4857 38.6784 52.1805C38.6784 51.9699 38.6784 51.7612 38.6935 51.5526C39.0556 42.7309 47.0777 35.6166 57.0099 35.3167C57.2256 35.3076 57.4432 35.3056 57.6629 35.3056C68.1297 35.3056 76.6474 42.8754 76.6474 52.1805C76.6474 61.4857 68.1348 69.0544 57.6629 69.0544V69.0554Z" fill="#E6E6E6"/>
<path d="M47.0043 51.9609L45.8939 51.9549C45.8939 51.8545 46.0724 42.0779 57.43 41.3998L57.4962 42.5032C47.1949 43.1232 47.0043 51.6008 47.0043 51.9609Z" fill="#E6E6E6"/>
<path d="M68.8705 51.7351C68.8278 50.4695 68.531 49.2254 67.9978 48.0768C67.4646 46.9282 66.7059 45.8986 65.7667 45.0491C63.5588 43.0357 60.6725 41.9294 57.6844 41.9514H57.6623C51.5632 41.9514 46.5846 46.3191 46.4542 51.7341C46.4542 51.8073 46.4542 51.8825 46.4542 51.9558C46.4701 53.3371 46.7873 54.6984 47.3837 55.9445C47.98 57.1906 48.8412 58.2915 49.907 59.1704C52.079 60.995 54.8308 61.9846 57.6674 61.9611H57.6894C63.8618 61.9501 68.8805 57.467 68.8805 51.9558C68.8755 51.8845 68.8755 51.8083 68.8705 51.7351Z" fill="#E6E6E6"/>
<path d="M65.7669 45.0501L65.4338 45.345L50.2352 58.8765L49.9021 59.1714C48.8364 58.2926 47.9753 57.1918 47.379 55.9459C46.7826 54.7 46.4654 53.339 46.4493 51.9578C46.4493 51.8845 46.4493 51.8093 46.4493 51.7361C46.5797 46.3191 51.5583 41.9534 57.6575 41.9534H57.6795C60.6692 41.9299 63.5575 43.0358 65.7669 45.0501Z" fill="#A7D325"/>
</svg>
