<svg width="163" height="115" viewBox="0 0 163 115" fill="none" xmlns="http://www.w3.org/2000/svg">
<path d="M18.1724 91.9977C14.6738 91.9965 11.2906 90.7462 8.63212 88.4719C7.47121 87.3402 6.5201 86.0117 5.82293 84.548C5.19946 83.36 4.85029 82.0473 4.80112 80.7066C4.75194 79.3658 5.00402 78.0311 5.53879 76.8007C5.02332 77.3249 4.45319 77.7925 3.83814 78.1954L3.52704 78.4028L3.50941 78.0305C3.498 77.7879 3.49178 77.5463 3.49178 77.3119C3.49178 75.9327 4.53498 74.5328 4.05382 73.2573C2.02548 67.8826 -4.40796 62.5411 4.91557 54.2224C5.77834 53.453 4.62624 51.9141 4.62624 50.7506C4.62624 39.3437 17.0234 22.2263 25.3224 30.0586C30.1661 34.6307 40.2549 37.8785 44.9712 44.2383L45.0334 44.4271L44.8498 44.5017C43.9082 44.8974 42.9165 45.1612 41.9027 45.2857C42.9835 45.5059 44.0865 45.5981 45.1889 45.5605L45.36 45.5543L45.4015 45.7202C45.8116 47.3655 46.0188 49.0549 46.0185 50.7506V50.9341C46.0147 52.222 46.2824 53.4962 46.8042 54.6737C47.3259 55.8512 48.09 56.9055 49.0465 57.7678C50.5572 59.1453 51.7643 60.8225 52.591 62.6923C53.4176 64.5622 53.8456 66.5838 53.8477 68.6282C53.8477 71.0465 52.2041 74.2217 50.8249 76.4595C50.4754 77.0295 50.0014 77.513 49.4383 77.8736C48.8753 78.2342 48.2379 78.4627 47.574 78.5418C46.9451 78.6211 46.3065 78.5613 45.7033 78.3665C45.1002 78.1717 44.5472 77.8467 44.0835 77.4146C44.7362 78.7272 45.5867 79.9318 46.6054 80.9859L46.7931 81.1799L46.5598 81.3157C44.3146 82.6248 41.762 83.314 39.163 83.3129H39.0106C37.1049 83.2934 35.2145 83.6543 33.4501 84.3746C31.6856 85.0948 30.0827 86.1599 28.7351 87.5075C27.3623 88.9218 25.7207 90.0475 23.9069 90.8186C22.093 91.5896 20.1433 91.9905 18.1724 91.9977Z" fill="#E6E6E6"/>
<path d="M12.994 115C12.9304 115 12.869 114.977 12.821 114.935C12.773 114.893 12.7416 114.836 12.7326 114.773C12.042 108.615 12.0006 102.401 12.6092 96.2346C13.5208 86.5067 16.4461 72.4939 25.2169 60.9865C25.2372 60.957 25.2633 60.932 25.2936 60.9129C25.3239 60.8939 25.3577 60.8811 25.3931 60.8755C25.4284 60.8699 25.4645 60.8715 25.4992 60.8803C25.5339 60.889 25.5665 60.9047 25.595 60.9264C25.6234 60.9481 25.6472 60.9754 25.6648 61.0066C25.6824 61.0377 25.6935 61.0721 25.6974 61.1077C25.7013 61.1433 25.698 61.1793 25.6876 61.2135C25.6772 61.2478 25.6599 61.2795 25.6369 61.3069C16.9438 72.7137 14.0403 86.6249 13.135 96.2844C12.5296 102.41 12.57 108.582 13.2553 114.699C13.2606 114.737 13.2579 114.775 13.2472 114.811C13.2365 114.847 13.2182 114.881 13.1934 114.91C13.1686 114.938 13.138 114.961 13.1036 114.977C13.0692 114.993 13.0318 115 12.994 115Z" fill="#3F3D56"/>
<path d="M20.9997 76.9279C20.9439 76.9278 20.8896 76.9101 20.8445 76.8773C20.7994 76.8445 20.7658 76.7983 20.7485 76.7453C20.7313 76.6923 20.7312 76.6351 20.7484 76.5821C20.7656 76.529 20.7991 76.4827 20.8441 76.4498C23.3428 74.7584 26.042 73.3842 28.8797 72.3589C33.3128 70.736 40.0543 69.2646 46.9948 71.4733C47.03 71.482 47.063 71.4978 47.0918 71.5197C47.1207 71.5416 47.1447 71.5692 47.1624 71.6007C47.1801 71.6323 47.1912 71.6673 47.1948 71.7033C47.1985 71.7393 47.1948 71.7757 47.1838 71.8102C47.1729 71.8447 47.1549 71.8766 47.1311 71.9039C47.1073 71.9312 47.0782 71.9533 47.0455 71.9689C47.0128 71.9845 46.9773 71.9932 46.9411 71.9944C46.9049 71.9957 46.8688 71.9896 46.8351 71.9763C40.0366 69.8132 33.4176 71.2598 29.0622 72.8546C26.2701 73.8621 23.614 75.213 21.1552 76.876C21.1102 76.9094 21.0557 76.9276 20.9997 76.9279Z" fill="#3F3D56"/>
<path d="M127.228 91.9978C123.73 91.9966 120.346 90.7463 117.688 88.4721C116.527 87.3404 115.576 86.0118 114.879 84.5481C114.255 83.3602 113.906 82.0476 113.857 80.7068C113.807 79.3661 114.059 78.0314 114.594 76.8008C114.078 77.3251 113.508 77.7927 112.893 78.1956L112.582 78.403L112.564 78.0307C112.553 77.788 112.547 77.5464 112.547 77.3121C112.547 75.9329 113.59 74.5329 113.109 73.2574C111.08 67.8828 104.647 62.5412 113.97 54.2225C114.833 53.4531 113.681 51.9142 113.681 50.7507C113.681 39.3439 129.806 19.6029 134.377 30.0588C140.013 42.9547 149.725 41.5755 154.026 44.2385L154.088 44.4272L153.905 44.5019C152.963 44.8976 151.971 45.1614 150.958 45.2858C152.038 45.5061 153.141 45.5983 154.244 45.5606L154.415 45.5544L154.456 45.7203C154.868 47.3655 155.077 49.0548 155.079 50.7507V50.9343C155.075 52.2222 155.343 53.4964 155.864 54.6739C156.386 55.8513 157.15 56.9056 158.107 57.768C159.617 59.1455 160.824 60.8226 161.651 62.6925C162.478 64.5624 162.906 66.5839 162.908 68.6283C162.908 71.0466 161.264 74.2218 159.885 76.4596C159.535 77.0296 159.061 77.5131 158.498 77.8737C157.935 78.2344 157.298 78.4628 156.634 78.5419C156.005 78.6213 155.367 78.5615 154.763 78.3667C154.16 78.1719 153.607 77.8469 153.144 77.4147C153.796 78.727 154.647 79.9311 155.666 80.985L155.854 81.179L155.621 81.3148C153.376 82.6239 150.823 83.3131 148.224 83.312H148.072C146.166 83.2925 144.276 83.6534 142.511 84.3737C140.747 85.0939 139.144 86.1591 137.796 87.5066C136.424 88.9203 134.783 90.0456 132.97 90.8167C131.157 91.5877 129.209 91.9889 127.239 91.9968L127.228 91.9978Z" fill="#E6E6E6"/>
<path d="M122.05 115C121.986 115 121.925 114.977 121.877 114.935C121.829 114.893 121.798 114.836 121.789 114.773C121.098 108.615 121.056 102.401 121.665 96.2346C122.577 86.5067 125.502 72.4939 134.273 60.9865C134.293 60.957 134.319 60.932 134.349 60.9129C134.38 60.8939 134.414 60.8811 134.449 60.8755C134.484 60.8699 134.52 60.8715 134.555 60.8803C134.59 60.889 134.622 60.9047 134.651 60.9264C134.679 60.9481 134.703 60.9754 134.721 61.0066C134.738 61.0377 134.749 61.0721 134.753 61.1077C134.757 61.1433 134.754 61.1793 134.743 61.2135C134.733 61.2478 134.716 61.2795 134.693 61.3069C126 72.7137 123.096 86.6249 122.191 96.2844C121.585 102.41 121.626 108.582 122.311 114.699C122.317 114.737 122.314 114.775 122.303 114.811C122.292 114.847 122.274 114.881 122.249 114.91C122.225 114.938 122.194 114.961 122.159 114.977C122.125 114.993 122.088 115 122.05 115Z" fill="#3F3D56"/>
<path d="M129.332 77.4706C129.276 77.4705 129.222 77.4528 129.177 77.42C129.132 77.3872 129.098 77.341 129.081 77.288C129.063 77.235 129.063 77.1778 129.081 77.1248C129.098 77.0717 129.131 77.0254 129.176 76.9926C131.675 75.3011 134.374 73.9269 137.212 72.9017C141.645 71.2788 148.387 69.8073 155.327 72.0161C155.39 72.0406 155.44 72.0879 155.469 72.1485C155.498 72.209 155.503 72.2783 155.482 72.3422C155.462 72.4061 155.418 72.46 155.36 72.4929C155.301 72.5257 155.232 72.535 155.167 72.5191C148.369 70.3559 141.75 71.8025 137.394 73.3974C134.602 74.4049 131.946 75.7557 129.487 77.4188C129.442 77.4522 129.388 77.4704 129.332 77.4706Z" fill="#3F3D56"/>
<path d="M117.245 47.3669C117.241 47.3113 117.255 47.2558 117.284 47.2084C117.314 47.161 117.357 47.1241 117.409 47.1031C117.461 47.082 117.518 47.0778 117.572 47.0911C117.626 47.1044 117.675 47.1345 117.711 47.1771C119.577 49.5476 121.142 52.1409 122.369 54.8975C124.307 59.202 126.26 65.82 124.557 72.9016C124.541 72.9703 124.498 73.0298 124.437 73.0668C124.377 73.1039 124.305 73.1155 124.236 73.0991C124.167 73.0828 124.108 73.0398 124.071 72.9796C124.034 72.9194 124.022 72.847 124.038 72.7782C125.707 65.8418 123.786 59.3441 121.882 55.1142C120.676 52.4022 119.138 49.8506 117.302 47.5183C117.268 47.4751 117.248 47.4221 117.245 47.3669Z" fill="#3F3D56"/>
<path d="M8.73319 45.7365C8.7292 45.6809 8.74291 45.6254 8.77236 45.578C8.8018 45.5306 8.84549 45.4937 8.89715 45.4727C8.94882 45.4516 9.00582 45.4474 9.06001 45.4607C9.11419 45.474 9.16277 45.5041 9.19881 45.5467C11.0655 47.9172 12.6302 50.5105 13.8569 53.2671C15.7951 57.5716 17.7477 64.1896 16.045 71.2712C16.0286 71.34 15.9856 71.3994 15.9254 71.4365C15.8652 71.4735 15.7928 71.4851 15.724 71.4687C15.6553 71.4524 15.5958 71.4094 15.5588 71.3492C15.5217 71.289 15.5101 71.2166 15.5265 71.1478C17.195 64.2114 15.2745 57.7137 13.3706 53.4838C12.1646 50.7718 10.626 48.2202 8.79024 45.8879C8.75581 45.8447 8.73585 45.7917 8.73319 45.7365Z" fill="#3F3D56"/>
<path d="M81.6253 19.0401C81.3101 18.717 80.9225 18.4738 80.4946 18.3306C80.0666 18.1873 79.6107 18.1482 79.1646 18.2164C78.7185 18.2846 78.295 18.4583 77.9295 18.7229C77.5639 18.9875 77.2667 19.3355 77.0625 19.7379C74.9853 21.1213 73.2041 22.904 71.8224 24.9823C70.4407 27.0606 69.4862 29.393 69.0145 31.8437L61.3916 24.927C61.4809 24.3485 61.3848 23.7566 61.1169 23.2362C60.849 22.7157 60.4232 22.2935 59.9005 22.03C59.3779 21.7665 58.7851 21.6753 58.2074 21.7695C57.6297 21.8637 57.0967 22.1384 56.6847 22.5542C56.2728 22.9701 56.0031 23.5057 55.9144 24.0843C55.8257 24.6629 55.9225 25.2547 56.191 25.7748C56.4594 26.295 56.8856 26.7168 57.4086 26.9797C57.9315 27.2427 58.5244 27.3332 59.102 27.2385C60.5009 29.6142 66.9924 40.1178 70.9982 37.712C74.3653 35.6909 80.3456 25.6747 82.1023 22.3532C82.3842 21.8217 82.4899 21.2144 82.4042 20.6188C82.3184 20.0233 82.0457 19.4705 81.6253 19.0401Z" fill="#FFB6B6"/>
<path d="M81.8681 23.6277C82.3383 22.6171 82.4639 21.4802 82.2258 20.3913C82.0166 19.818 81.6568 19.3118 81.1841 18.9258C80.7115 18.5398 80.1435 18.2884 79.5401 18.1981C78.3219 18.0371 77.0866 18.3229 76.063 19.0028C75.0502 19.6815 74.1649 20.5335 73.4478 21.5195L73.6469 21.2022L70.7371 25.0142L78.1225 30.1452C79.7271 28.1977 80.9933 25.9946 81.8681 23.6277Z" fill="#A7D325"/>
<path d="M71.2512 111.155H67.7254L66.0476 97.5535H71.2522L71.2512 111.155Z" fill="#FFB6B6"/>
<path d="M71.3756 114.835H60.5319V114.698C60.5319 113.578 60.9766 112.505 61.7681 111.713C62.5596 110.922 63.6331 110.477 64.7524 110.477L66.7331 108.975L70.4289 110.477H71.3756V114.835Z" fill="#2F2E41"/>
<path d="M122.976 61.0788L124.456 64.2789L112.816 71.5119L110.632 66.7926L122.976 61.0788Z" fill="#FFB6B6"/>
<path d="M126.264 59.422L130.816 69.264L130.692 69.3211C129.676 69.7902 128.516 69.8368 127.466 69.4509C126.416 69.0649 125.562 68.2778 125.092 67.2627L122.897 66.0961L122.709 62.1109L122.312 61.2523L126.264 59.422Z" fill="#2F2E41"/>
<path d="M44.9292 6.82556C45.6532 6.60822 46.1177 6.02382 45.9665 5.52027C45.8154 5.01672 45.1059 4.7847 44.3818 5.00204C43.6577 5.21938 43.1933 5.80377 43.3445 6.30733C43.4956 6.81088 44.2051 7.0429 44.9292 6.82556Z" fill="#E6E6E6"/>
<path d="M53.8677 6.37902C54.5918 6.16168 55.0562 5.57729 54.9051 5.07373C54.7539 4.57018 54.0444 4.33816 53.3204 4.5555C52.5963 4.77284 52.1319 5.35724 52.283 5.86079C52.4342 6.36434 53.1437 6.59636 53.8677 6.37902Z" fill="#3F3D56"/>
<path d="M43.5737 14.3164C44.2977 14.099 44.7622 13.5146 44.611 13.0111C44.4599 12.5075 43.7504 12.2755 43.0263 12.4928C42.3023 12.7102 41.8378 13.2946 41.989 13.7981C42.1401 14.3017 42.8496 14.5337 43.5737 14.3164Z" fill="#FF6584"/>
<path d="M40.7528 17.4476C41.081 17.3964 41.2874 16.9723 41.2138 16.5004C41.1402 16.0285 40.8145 15.6874 40.4863 15.7386C40.1581 15.7897 39.9517 16.2138 40.0253 16.6857C40.0989 17.1577 40.4246 17.4988 40.7528 17.4476Z" fill="#E6E6E6"/>
<path d="M40.2616 23.0832C40.5898 23.032 40.7962 22.6079 40.7226 22.136C40.649 21.664 40.3233 21.3229 39.9951 21.3741C39.6669 21.4253 39.4605 21.8494 39.5341 22.3213C39.6076 22.7932 39.9334 23.1343 40.2616 23.0832Z" fill="#3F3D56"/>
<path d="M48.9384 12.0076C49.2666 11.9564 49.473 11.5323 49.3994 11.0604C49.3259 10.5885 49.0001 10.2474 48.6719 10.2986C48.3437 10.3497 48.1373 10.7738 48.2109 11.2457C48.2845 11.7177 48.6102 12.0588 48.9384 12.0076Z" fill="#E6E6E6"/>
<path d="M44.3651 10.5137C44.6933 10.4625 44.8997 10.0384 44.8262 9.5665C44.7526 9.09456 44.4268 8.75347 44.0986 8.80464C43.7704 8.85582 43.564 9.27989 43.6376 9.75183C43.7112 10.2238 44.0369 10.5649 44.3651 10.5137Z" fill="#FF6584"/>
<path d="M49.7109 5.70455C50.0391 5.65337 50.2455 5.2293 50.1719 4.75736C50.0983 4.28543 49.7726 3.94433 49.4444 3.99551C49.1162 4.04669 48.9098 4.47076 48.9834 4.9427C49.057 5.41463 49.3827 5.75573 49.7109 5.70455Z" fill="#3F3D56"/>
<path d="M99.726 95.6228C100.474 95.514 101.02 95.0038 100.944 94.4833C100.868 93.9628 100.2 93.6291 99.4519 93.738C98.7035 93.8468 98.1581 94.357 98.2338 94.8775C98.3095 95.398 98.9776 95.7317 99.726 95.6228Z" fill="#E6E6E6"/>
<path d="M90.8168 94.753C91.5652 94.6441 92.1105 94.1339 92.0348 93.6134C91.9591 93.0929 91.291 92.7592 90.5426 92.8681C89.7942 92.9769 89.2488 93.4871 89.3246 94.0076C89.4003 94.5281 90.0683 94.8618 90.8168 94.753Z" fill="#3F3D56"/>
<path d="M102.165 88.4106C102.913 88.3017 103.458 87.7915 103.383 87.2711C103.307 86.7506 102.639 86.4169 101.89 86.5257C101.142 86.6346 100.597 87.1448 100.672 87.6653C100.748 88.1858 101.416 88.5195 102.165 88.4106Z" fill="#FF6584"/>
<path d="M105.152 85.5707C105.484 85.5681 105.75 85.1787 105.746 84.7011C105.742 84.2234 105.47 83.8384 105.138 83.841C104.806 83.8437 104.539 84.2331 104.543 84.7107C104.547 85.1883 104.819 85.5734 105.152 85.5707Z" fill="#E6E6E6"/>
<path d="M106.464 80.0687C106.796 80.0661 107.062 79.6767 107.059 79.1991C107.055 78.7214 106.782 78.3364 106.45 78.339C106.118 78.3417 105.852 78.7311 105.856 79.2087C105.86 79.6863 106.132 80.0714 106.464 80.0687Z" fill="#3F3D56"/>
<path d="M96.2569 89.7522C96.5891 89.7495 96.8553 89.3602 96.8515 88.8825C96.8476 88.4049 96.5753 88.0198 96.2431 88.0225C95.9109 88.0251 95.6447 88.4145 95.6486 88.8921C95.6524 89.3698 95.9248 89.7548 96.2569 89.7522Z" fill="#E6E6E6"/>
<path d="M100.561 91.9021C100.893 91.8994 101.159 91.5101 101.155 91.0324C101.151 90.5548 100.879 90.1698 100.547 90.1724C100.215 90.1751 99.9485 90.5644 99.9523 91.0421C99.9561 91.5197 100.229 91.9048 100.561 91.9021Z" fill="#FF6584"/>
<path d="M94.5694 95.8738C94.9016 95.8712 95.1678 95.4818 95.1639 95.0042C95.1601 94.5265 94.8877 94.1415 94.5556 94.1441C94.2234 94.1468 93.9572 94.5362 93.961 95.0138C93.9649 95.4914 94.2372 95.8765 94.5694 95.8738Z" fill="#3F3D56"/>
<path d="M76.7977 49.6796L74.6542 52.3042C74.703 53.0145 74.479 53.4211 73.8133 53.3339C73.8133 53.3339 73.917 54.6354 73.0977 54.2112C72.2785 53.7871 72.4818 54.9651 72.4818 54.9651L71.872 55.7118C71.872 55.7118 71.8534 56.981 71.2499 56.4708C70.6463 55.9606 70.4565 57.4425 70.4565 57.4425L69.6923 58.3758L61.8952 67.9243L66.2661 103.017L71.3743 102.696L72.6186 71.9312C72.9359 71.083 73.4182 70.6381 74.1555 70.8196C74.4852 70.8922 74.6739 70.6931 74.8004 70.353L75.3874 69.9278L83.0745 64.3695L93.2287 81.7712L118.475 68.4563L116.12 63.9278L98.4085 69.7878L97.9439 64.2472C97.3383 63.8946 97.4399 63.4736 97.8402 63.0235L97.724 61.6412C98.3244 61.2731 98.0268 60.6883 97.5923 60.0723C96.685 59.4024 96.7741 58.6392 97.4036 57.8262C97.4036 57.8262 98.199 47.418 94.3424 45.9828C90.4859 44.5476 76.7977 49.6796 76.7977 49.6796Z" fill="#2F2E41"/>
<path d="M84.3677 15.5153L79.527 15.7424L76.9905 19.3656C75.2248 23.2503 74.74 27.5959 75.6062 31.7742L77.3524 40.1986L76.89 46.4465C75.6456 47.4471 75.5419 48.6241 76.6276 49.9815C75.2961 54.5733 86.622 52.5066 97.0987 50.8879C97.1264 48.5035 96.4316 46.1666 95.1056 44.1848L96.5149 25.9339L91.3009 19.7306L87.3106 17.1029L84.3677 15.5153Z" fill="#A7D325"/>
<path d="M88.8976 20.5246C88.5106 20.7567 88.1846 21.0777 87.9464 21.461C87.7083 21.8442 87.5651 22.2788 87.5285 22.7285C87.4919 23.1782 87.563 23.6302 87.736 24.0469C87.909 24.4636 88.1789 24.8331 88.5232 25.1247C89.1071 28.9138 92.7344 32.564 98.4389 35.7496L89.9501 41.5702C89.4079 41.3498 88.8098 41.3067 88.2415 41.4472C87.6733 41.5877 87.1642 41.9045 86.7871 42.3522C86.4101 42.7999 86.1845 43.3555 86.1427 43.9394C86.101 44.5232 86.2452 45.1053 86.5547 45.6021C86.8642 46.099 87.3232 46.485 87.8656 46.7049C88.4081 46.9248 89.0062 46.9672 89.5743 46.8262C90.1424 46.6851 90.6512 46.3677 91.0278 45.9196C91.4044 45.4715 91.6294 44.9156 91.6705 44.3317C94.3045 43.5187 106.023 39.628 104.609 35.1752C103.42 31.4317 95.0552 23.3017 92.2284 20.8254C91.7765 20.429 91.2106 20.1864 90.612 20.1323C90.0134 20.0783 89.4131 20.2156 88.8976 20.5246Z" fill="#FFB6B6"/>
<path d="M79.666 37.4964C79.101 37.4954 78.5572 37.2813 78.1431 36.8968C77.729 36.5123 77.4752 35.9858 77.4324 35.4224L77.1317 31.5856C77.0853 30.9921 77.2765 30.4045 77.6633 29.952C78.0501 29.4994 78.6008 29.2191 79.1942 29.1725L86.6387 28.5887C87.2322 28.5423 87.8198 28.7335 88.2723 29.1203C88.7249 29.5071 89.0052 30.0578 89.0518 30.6512L89.3525 34.4881C89.3989 35.0816 89.2076 35.6692 88.8208 36.1217C88.4341 36.5742 87.8834 36.8545 87.29 36.9011L79.8455 37.485C79.7846 37.4926 79.7248 37.4964 79.666 37.4964Z" fill="#F2F2F2"/>
<path d="M80.7373 14.5982C84.2377 14.5982 87.0753 11.7606 87.0753 8.26019C87.0753 4.75978 84.2377 1.92214 80.7373 1.92214C77.2369 1.92214 74.3992 4.75978 74.3992 8.26019C74.3992 11.7606 77.2369 14.5982 80.7373 14.5982Z" fill="#FFB6B6"/>
<path d="M87.3219 4.22646C87.0212 3.83655 86.678 3.47879 86.4167 3.06192C86.1553 2.64506 85.9925 2.20953 85.7094 1.83103C84.8705 0.70901 83.3088 0.482944 81.9151 0.33984L79.1526 0.0629667C78.6351 -0.0102463 78.1106 -0.0196579 77.5908 0.0349598C77.0963 0.111689 76.6263 0.301884 76.2175 0.590636C75.8088 0.879389 75.4724 1.25887 75.2348 1.69933C74.9652 2.20953 74.7848 2.84623 74.2591 3.0837C74.0112 3.1618 73.7587 3.22449 73.5031 3.27139C73.2542 3.34813 73.0042 3.54723 73.0136 3.80751C73.0302 4.28867 73.8806 4.56452 73.6732 5.00005C73.4896 5.38373 72.7575 5.11204 72.6528 5.69171C72.6387 5.77529 72.6422 5.86088 72.6631 5.94301C72.684 6.02515 72.7218 6.10202 72.7741 6.16873C73.037 6.43478 73.389 6.59431 73.7623 6.6167L73.1162 7.54066C75.207 8.39972 77.5345 8.4901 79.6856 7.79576C80.0066 7.68953 80.3492 7.66557 80.682 7.72607C81.0147 7.78658 81.327 7.92962 81.5901 8.14208C81.8532 8.35454 82.0588 8.62963 82.1881 8.94216C82.3173 9.25469 82.3661 9.59465 82.3299 9.9309V9.95683C82.3158 10.0582 82.3296 10.1615 82.3695 10.2557C82.4095 10.35 82.4743 10.4316 82.557 10.4919C82.8846 10.7149 83.2175 10.4017 83.3658 10.0927C83.5141 9.78365 83.6178 9.39685 83.988 9.28693C84.1372 9.24939 84.2946 9.26124 84.4365 9.3207C84.5784 9.38015 84.6972 9.48401 84.7751 9.6167C84.8857 9.84269 84.9433 10.091 84.9433 10.3426C84.9433 10.5942 84.8857 10.8425 84.7751 11.0685C84.3958 12.1569 83.7811 13.1483 82.9749 13.972C84.352 13.8808 83.9486 14.0187 85.3257 13.9274L85.7094 13.9876C86.5859 13.3257 87.1678 12.3465 87.3302 11.2603C87.8809 8.8628 88.8256 6.17391 87.3219 4.22646Z" fill="#2F2E41"/>
<path d="M92.6966 20.0034C91.8287 19.3046 90.7554 18.9097 89.6416 18.8794C89.0349 18.9447 88.4571 19.1724 87.9689 19.5385C87.4808 19.9046 87.1003 20.3955 86.8676 20.9595C86.4188 22.1033 86.3997 23.371 86.8137 24.5278C87.2292 25.674 87.8435 26.738 88.6284 27.6709L88.3682 27.4013L91.3692 31.1417L98.1252 25.205C96.6198 23.1793 94.7847 21.4209 92.6966 20.0034Z" fill="#A7D325"/>
<path d="M80.5614 114.502V114.375C80.6185 112.258 81.1361 110.178 82.078 108.281C83.02 106.384 84.3637 104.715 86.0159 103.389C86.9485 102.653 87.97 102.038 89.0564 101.557L89.1601 101.51L89.1777 101.622C89.3851 102.959 89.7211 104.324 89.8767 104.929L90.9136 100.868L91.0287 100.835C91.5589 100.68 92.1236 100.686 92.65 100.855C93.1764 101.023 93.6403 101.345 93.9821 101.779C94.3388 102.213 94.5572 102.744 94.6094 103.304C94.6615 103.864 94.5448 104.426 94.2745 104.919C94.0318 105.371 93.7933 105.842 93.5631 106.298C92.8457 107.907 91.9007 109.404 90.7571 110.744C89.8441 111.688 88.7318 112.416 87.5014 112.875C86.2709 113.334 84.9535 113.512 83.6454 113.396L80.5614 114.502Z" fill="#F2F2F2"/>
<path d="M95.2662 114.867L46.0375 114.923C45.9803 114.923 45.9254 114.9 45.885 114.86C45.8445 114.82 45.8218 114.765 45.8218 114.707C45.8218 114.65 45.8445 114.595 45.885 114.555C45.9254 114.515 45.9803 114.492 46.0375 114.492L95.2662 114.436C95.3234 114.436 95.3783 114.459 95.4188 114.499C95.4592 114.539 95.4819 114.594 95.4819 114.651C95.4819 114.709 95.4592 114.764 95.4188 114.804C95.3783 114.844 95.3234 114.867 95.2662 114.867Z" fill="#CACACA"/>
<path d="M141.281 114.867L112.885 114.923C112.828 114.923 112.773 114.9 112.732 114.86C112.692 114.82 112.669 114.765 112.669 114.707C112.669 114.65 112.692 114.595 112.732 114.555C112.773 114.515 112.828 114.492 112.885 114.492L141.281 114.436C141.338 114.436 141.393 114.459 141.433 114.499C141.474 114.539 141.496 114.594 141.496 114.651C141.496 114.709 141.474 114.764 141.433 114.804C141.393 114.844 141.338 114.867 141.281 114.867Z" fill="#CACACA"/>
<path d="M28.42 114.867L1.83486 114.923C1.77765 114.923 1.72279 114.9 1.68234 114.86C1.64189 114.82 1.61916 114.765 1.61916 114.707C1.61916 114.65 1.64189 114.595 1.68234 114.555C1.72279 114.515 1.77765 114.492 1.83486 114.492L28.42 114.436C28.4772 114.436 28.5321 114.459 28.5725 114.499C28.613 114.539 28.6357 114.594 28.6357 114.651C28.6357 114.709 28.613 114.764 28.5725 114.804C28.5321 114.844 28.4772 114.867 28.42 114.867Z" fill="#CACACA"/>
<path d="M57.213 18.1645C57.1086 18.1646 57.0053 18.1863 56.9096 18.2283C56.814 18.2703 56.728 18.3317 56.6573 18.4086C56.5865 18.4855 56.5325 18.5762 56.4986 18.675C56.4647 18.7738 56.4516 18.8786 56.4602 18.9827C57.2396 22.3715 57.526 25.855 57.3105 29.3256C57.327 29.5144 57.4135 29.6902 57.553 29.8185C57.6925 29.9469 57.8749 30.0185 58.0644 30.0193H62.9382C63.1277 30.0185 63.3101 29.9469 63.4496 29.8185C63.5891 29.6902 63.6756 29.5144 63.6921 29.3256C63.3799 25.8547 63.6675 22.356 64.5424 18.9827C64.551 18.8786 64.538 18.7738 64.504 18.675C64.4701 18.5762 64.4161 18.4855 64.3453 18.4086C64.2746 18.3317 64.1887 18.2703 64.093 18.2283C63.9974 18.1863 63.8941 18.1646 63.7896 18.1645H57.213Z" fill="#A7D325"/>
<path d="M64.9344 19.5387L64.5704 17.8101C64.5373 17.6529 64.4511 17.5118 64.3263 17.4106C64.2015 17.3094 64.0456 17.2542 63.8849 17.2543H61.6139C61.6051 17.2242 61.5907 17.1961 61.5714 17.1713L61.3194 16.8602C61.2957 16.8305 61.2655 16.8065 61.2312 16.79C61.197 16.7735 61.1594 16.7649 61.1214 16.7648H59.7194C59.6813 16.7649 59.6437 16.7735 59.6095 16.79C59.5752 16.8065 59.5451 16.8305 59.5213 16.8602L59.2693 17.1713C59.2501 17.1961 59.2356 17.2242 59.2268 17.2543H57.1207C56.96 17.2542 56.8042 17.3094 56.6793 17.4106C56.5545 17.5118 56.4683 17.6529 56.4352 17.8101L56.0713 19.5387C56.0498 19.6407 56.0514 19.7462 56.0759 19.8475C56.1004 19.9487 56.1472 20.0433 56.2128 20.1241C56.2785 20.205 56.3614 20.2702 56.4555 20.315C56.5496 20.3597 56.6525 20.3829 56.7567 20.3829C59.1979 21.1372 61.8098 21.1372 64.251 20.3829C64.3552 20.3829 64.4581 20.3597 64.5522 20.315C64.6463 20.2702 64.7292 20.205 64.7948 20.1241C64.8605 20.0433 64.9073 19.9487 64.9318 19.8475C64.9563 19.7462 64.9579 19.6407 64.9364 19.5387H64.9344Z" fill="#3F3D56"/>
</svg>
